<svg id="person-or-personal-setting-outline-symbol-in-a-circle-svgrepo-com" xmlns="http://www.w3.org/2000/svg" width="19.64" height="25.404" viewBox="0 0 19.64 25.404">
  <g id="Group_3792" data-name="Group 3792">
    <path id="Path_4015" data-name="Path 4015" d="M18.463,9.157a.371.371,0,0,0,.123-.025c.024.052.054.109.089.169a4.4,4.4,0,0,0,3.863,2.825,4.453,4.453,0,0,0,3.94-3,.37.37,0,0,0,.135.027,2.664,2.664,0,0,0,2.7-2.624A2.632,2.632,0,0,0,27.5,4.059a.378.378,0,0,0-.019-.129A5.467,5.467,0,0,0,22.538,0a5.476,5.476,0,0,0-4.977,4.016.32.32,0,0,0-.007.05,2.631,2.631,0,0,0-1.788,2.467A2.663,2.663,0,0,0,18.463,9.157Zm4.075,2.217a3.179,3.179,0,0,1-2.272-1.028,4.363,4.363,0,0,0,.608.1,1.088,1.088,0,0,0,.9.385c.58,0,1.018-.317,1.018-.737s-.437-.737-1.018-.737a1.129,1.129,0,0,0-.861.336,1.942,1.942,0,0,1-1.577-.748,5.981,5.981,0,0,1-.495-2.408c0-2.669,1.659-4.841,3.7-4.841s3.7,2.171,3.7,4.841S24.578,11.374,22.538,11.374Zm6.018-4.841a1.9,1.9,0,0,1-1.826,1.86,6.815,6.815,0,0,0,0-3.72A1.9,1.9,0,0,1,28.557,6.533ZM22.538.752a4.654,4.654,0,0,1,4.13,3.16l-.055,0a.367.367,0,0,0-.136.027,4.454,4.454,0,0,0-3.94-3,4.453,4.453,0,0,0-3.94,3,.371.371,0,0,0-.136-.027l-.057,0A4.645,4.645,0,0,1,22.538.752ZM18.345,4.673a6.814,6.814,0,0,0,0,3.72,1.9,1.9,0,0,1-1.826-1.86A1.9,1.9,0,0,1,18.345,4.673Z" transform="translate(-12.718)" fill="#004370"/>
    <path id="Path_4016" data-name="Path 4016" d="M12.216,39.859a.8.8,0,0,0,.8.8h.169a4.541,4.541,0,0,0,.315.813c.031.063.062.122.094.18l-.108.107a.783.783,0,0,0-.233.586.792.792,0,0,0,.233.583l.541.541a.822.822,0,0,0,1.135,0l.118-.118a4.432,4.432,0,0,0,1.016.419v.167a.8.8,0,0,0,.8.8h.764a.8.8,0,0,0,.8-.8v-.166a4.412,4.412,0,0,0,1.016-.422l.118.117a.821.821,0,0,0,1.134,0l.541-.541a.778.778,0,0,0,.231-.552.8.8,0,0,0-.231-.616l-.108-.108c.031-.057.062-.117.094-.179a4.559,4.559,0,0,0,.317-.814h.166a.811.811,0,0,0,.8-.835v-.664h4.178a.376.376,0,0,0,.376-.376V34.506a.376.376,0,0,0-.376-.376c-2.979,0-5.836-2.714-6.152-3.024a.373.373,0,0,0-.3-.106.378.378,0,0,0-.273.158,3.39,3.39,0,0,1-2.721,1.575,3.389,3.389,0,0,1-2.721-1.575A.377.377,0,0,0,14.487,31a.369.369,0,0,0-.3.106c-.317.31-3.179,3.024-6.152,3.024a.376.376,0,0,0-.376.376v4.279a.376.376,0,0,0,.376.376h4.179v.7Zm9.777,0a.05.05,0,0,1-.05.05h-.462a.376.376,0,0,0-.369.3,3.658,3.658,0,0,1-.323.925,3.715,3.715,0,0,1-.211.37.376.376,0,0,0,.049.472l.316.315a.049.049,0,0,1,.012.038c0,.011-.013.055-.012.066l-.541.541-.035.015a.05.05,0,0,1-.035-.015L20,42.61a.376.376,0,0,0-.475-.047,3.648,3.648,0,0,1-1.313.545.376.376,0,0,0-.3.369v.463a.051.051,0,0,1-.05.049H17.1a.05.05,0,0,1-.05-.049v-.466a.376.376,0,0,0-.3-.368,3.669,3.669,0,0,1-1.314-.543.376.376,0,0,0-.474.047l-.328.328a.05.05,0,0,1-.036.015l-.576-.556s-.013-.064-.013-.064a.048.048,0,0,1,.014-.039l.315-.315a.376.376,0,0,0,.049-.472,3.844,3.844,0,0,1-.21-.369,3.723,3.723,0,0,1-.322-.927.377.377,0,0,0-.369-.3h-.465c-.027,0-.05-.022-.05-.083v-.731l.015-.062a.051.051,0,0,1,.034-.021h.465a.376.376,0,0,0,.369-.3,3.712,3.712,0,0,1,.323-.928,3.649,3.649,0,0,1,.209-.369.376.376,0,0,0-.049-.471l-.316-.316a.048.048,0,0,1-.013-.039c0-.009.014-.055.013-.064l.541-.541.035-.015a.049.049,0,0,1,.035.015l.328.328a.376.376,0,0,0,.474.047,3.672,3.672,0,0,1,1.314-.543.376.376,0,0,0,.3-.369v-.465a.05.05,0,0,1,.05-.05h.764a.05.05,0,0,1,.05.05v.463a.375.375,0,0,0,.3.368,3.657,3.657,0,0,1,1.314.545A.378.378,0,0,0,20,36.31l.328-.328a.049.049,0,0,1,.035-.015l.576.555.266-.266-.254.333a.048.048,0,0,1-.012.037l-.316.315a.376.376,0,0,0-.049.472,3.843,3.843,0,0,1,.21.37,3.651,3.651,0,0,1,.324.926.376.376,0,0,0,.369.3h.462a.051.051,0,0,1,.035.021.335.335,0,0,0,.041.032l-.027.031ZM8.414,34.871c2.661-.172,5.067-2.1,5.993-2.937a4.025,4.025,0,0,0,3.074,1.552,4.027,4.027,0,0,0,3.075-1.553c.877.785,3.331,2.762,5.992,2.938v3.539H22.405l-.023-.011a.81.81,0,0,0-.169-.086c-.018-.007-.036-.013-.055-.018a.762.762,0,0,0-.216-.035h-.166a4.5,4.5,0,0,0-.317-.815c-.032-.062-.062-.122-.094-.178l.108-.108a.776.776,0,0,0,.232-.583.8.8,0,0,0-.232-.585l-.541-.541a.821.821,0,0,0-1.135,0l-.117.117a4.4,4.4,0,0,0-1.016-.421v-.166a.8.8,0,0,0-.8-.8H17.1a.8.8,0,0,0-.8.8v.168a4.41,4.41,0,0,0-1.016.419l-.118-.118a.821.821,0,0,0-1.134,0l-.541.54a.772.772,0,0,0-.232.555.8.8,0,0,0,.232.614l.108.108c-.032.057-.062.117-.094.179a4.521,4.521,0,0,0-.315.814h-.169a.773.773,0,0,0-.216.035l-.055.019a.8.8,0,0,0-.168.086c-.007,0-.016.007-.023.011H8.414Z" transform="translate(-7.661 -19.337)" fill="#00aeef"/>
    <path id="Path_4017" data-name="Path 4017" d="M29.622,44.874a.4.4,0,0,0-.12-.082,3.316,3.316,0,0,0-2.619.009.33.33,0,0,0-.108.076,3.3,3.3,0,0,0-.331.18,3.376,3.376,0,0,0-1.5,2.078,3.307,3.307,0,0,0-.1.764,3.357,3.357,0,0,0,1.917,3.014.369.369,0,0,0,.119.081,3.3,3.3,0,0,0,2.62.01.338.338,0,0,0,.109-.077A3.352,3.352,0,0,0,31.558,47.9a3.256,3.256,0,0,0-.1-.76A3.373,3.373,0,0,0,29.622,44.874Zm-2.342.578a2.545,2.545,0,0,1,1.818-.01.363.363,0,0,0,.111.072,2.528,2.528,0,0,1,.385.207c.026.017.052.033.077.05a2.531,2.531,0,0,1,.327.267c.018.017.033.036.05.053a2.573,2.573,0,0,1,.248.294c.014.02.03.038.044.058a2.607,2.607,0,0,1,.207.367l.017.039H25.839c.006-.012.01-.024.015-.035a2.64,2.64,0,0,1,.207-.367c.013-.02.028-.038.042-.056a2.6,2.6,0,0,1,.247-.294c.016-.017.031-.035.048-.051a2.646,2.646,0,0,1,.323-.267l.077-.05a2.58,2.58,0,0,1,.38-.208A.321.321,0,0,0,27.279,45.453Zm1.93,4.833a.308.308,0,0,0-.1.069,2.543,2.543,0,0,1-1.818,0,.363.363,0,0,0-.11-.072A2.6,2.6,0,0,1,25.6,47.9a2.155,2.155,0,0,1,.024-.3h5.161a2.1,2.1,0,0,1,.023.3A2.6,2.6,0,0,1,29.21,50.286Z" transform="translate(-18.381 -27.778)" fill="#004370"/>
  </g>
</svg>
