<svg id="gateway-user-access-svgrepo-com" xmlns="http://www.w3.org/2000/svg" width="20" height="20" viewBox="0 0 20 20">
  <path id="Path_4021" data-name="Path 4021" d="M17.362,20.181H16.09V18.909a.637.637,0,0,0-.636-.636H12.909a.637.637,0,0,0-.636.636v1.272H11V18.909A1.911,1.911,0,0,1,12.909,17h2.545a1.911,1.911,0,0,1,1.909,1.909Z" transform="translate(-4.181 -6.364)" fill="#00aeef"/>
  <path id="Path_4022" data-name="Path 4022" d="M14.727,13.454a2.227,2.227,0,1,1,2.227-2.227,2.227,2.227,0,0,1-2.227,2.227Zm0-3.181a.954.954,0,1,0,.954.954A.954.954,0,0,0,14.727,10.272Z" transform="translate(-4.727 -3.454)" fill="#00aeef"/>
  <path id="Path_4023" data-name="Path 4023" d="M19.714,11.443a1.272,1.272,0,0,0,0-1.8L16.032,5.962l1.845-1.821a1.274,1.274,0,1,0-.917-.883l-1.828,1.8L11.443,1.373a1.272,1.272,0,0,0-1.8,0L5.962,5.054,4.141,3.209a1.274,1.274,0,1,0-.882.917l1.8,1.828L1.373,9.644a1.272,1.272,0,0,0,0,1.8l3.689,3.689-1.8,1.828a1.271,1.271,0,1,0,.882.917l1.821-1.846,3.682,3.682a1.272,1.272,0,0,0,1.8,0l3.689-3.689,1.828,1.8a1.271,1.271,0,1,0,.917-.883l-1.845-1.821Zm-9.171,7.371L2.272,10.543l8.271-8.271,8.271,8.271Z" transform="translate(-0.543 -0.543)" fill="#004370"/>
  <rect id="_Transparent_Rectangle_" data-name="&lt;Transparent Rectangle&gt;" width="20" height="20" fill="none"/>
</svg>
