<svg id="database-svgrepo-com" xmlns="http://www.w3.org/2000/svg" width="20.641" height="21.391" viewBox="0 0 20.641 21.391">
  <path id="Path_4018" data-name="Path 4018" d="M39.453,35.077l-.542-.1a.74.74,0,0,1-.457-1.164l.34-.464a.375.375,0,0,0-.038-.487l-.735-.735a.376.376,0,0,0-.476-.045l-.457.309a.74.74,0,0,1-1.146-.5l-.087-.569a.375.375,0,0,0-.37-.318h-1.04a.375.375,0,0,0-.369.3l-.134.7a.74.74,0,0,1-1.141.472l-.59-.4a.376.376,0,0,0-.476.045L31,32.858a.375.375,0,0,0-.038.487l.34.464a.74.74,0,0,1-.457,1.164l-.542.1a.375.375,0,0,0-.3.369v1.04a.375.375,0,0,0,.318.371l.569.087a.74.74,0,0,1,.5,1.146l-.309.457a.375.375,0,0,0,.045.476l.735.735a.376.376,0,0,0,.487.038l.464-.34a.74.74,0,0,1,1.164.457l.1.542a.375.375,0,0,0,.369.3h1.04a.375.375,0,0,0,.371-.318l.062-.4a.739.739,0,0,1,1.169-.484l.326.239a.375.375,0,0,0,.487-.038l.735-.735a.375.375,0,0,0,.045-.476l-.309-.457a.74.74,0,0,1,.5-1.146l.569-.087a.375.375,0,0,0,.318-.371v-1.04A.376.376,0,0,0,39.453,35.077Zm-.446,1.086-.25.039a1.49,1.49,0,0,0-1.007,2.309l.135.2L37.6,39l-.066-.049a1.49,1.49,0,0,0-2.355.975l-.012.082h-.408l-.045-.238a1.491,1.491,0,0,0-2.345-.921l-.2.15-.288-.288.135-.2A1.49,1.49,0,0,0,31,36.2l-.25-.038v-.408l.238-.045a1.491,1.491,0,0,0,.921-2.345l-.15-.2.288-.288.334.226a1.49,1.49,0,0,0,2.3-.952l.075-.4h.408L35.2,32a1.49,1.49,0,0,0,2.309,1.007l.2-.135.288.288-.15.2a1.491,1.491,0,0,0,.921,2.345l.237.045Z" transform="translate(-19.117 -19.366)" fill="#00aeef"/>
  <path id="Path_4019" data-name="Path 4019" d="M39.876,39a1.876,1.876,0,1,0,1.876,1.876A1.879,1.879,0,0,0,39.876,39Zm0,3A1.126,1.126,0,1,1,41,40.876,1.127,1.127,0,0,1,39.876,42Z" transform="translate(-24.114 -24.364)" fill="#00aeef"/>
  <path id="Path_4020" data-name="Path 4020" d="M10.382,15.387q-.466,0-.913-.017c-.182-.007-.358-.018-.536-.029-.11-.006-.223-.011-.331-.018-.236-.017-.466-.039-.693-.063l-.13-.012q-.39-.043-.76-.1l-.019,0a14.571,14.571,0,0,1-3.213-.814l-.014-.005c-.157-.063-.3-.128-.445-.195l-.05-.023c-.126-.061-.243-.123-.355-.187l-.08-.045c-.1-.057-.186-.115-.271-.174l-.1-.068c-.072-.053-.136-.106-.2-.16-.033-.03-.067-.059-.1-.089-.05-.049-.095-.1-.136-.147s-.057-.069-.082-.1A1.328,1.328,0,0,1,1.877,13a1.161,1.161,0,0,1-.054-.111.919.919,0,0,1-.044-.136.792.792,0,0,1-.03-.181V9.492l.035.029c.082.072.165.143.259.212,1.414,1.07,4.241,1.9,8.338,1.9,4.08,0,6.9-.824,8.32-1.887a3.821,3.821,0,0,0,.311-.254h0v1.391a.375.375,0,0,0,.751,0V3.378a.368.368,0,0,0-.055-.184C19.275,1.584,16.04,0,10.382,0S1.489,1.584,1.055,3.194A.368.368,0,0,0,1,3.378V17.263a.352.352,0,0,0,.043.168c.427,1.814,4.012,2.882,7.434,3.139h.029a.375.375,0,0,0,.028-.749c-4.171-.313-6.6-1.583-6.771-2.619a.361.361,0,0,0-.012-.049V14l.035.029c.082.072.165.143.259.212,1.414,1.07,4.241,1.9,8.338,1.9a.375.375,0,0,0,0-.751ZM1.976,5.178c.113.089.234.176.366.261.027.018.058.035.087.053q.166.1.35.2l.138.072q.205.1.432.2L3.421,6c.176.075.363.146.558.215l.165.056q.232.078.48.15l.179.052c.22.061.446.119.684.172l.1.021c.21.046.427.088.651.128l.23.039q.319.052.657.1l.172.023q.419.051.865.087l.224.016q.356.026.729.043l.273.011c.323.011.653.019.995.019s.671-.008.995-.019l.273-.011q.373-.017.729-.043l.224-.016c.3-.024.586-.054.865-.087l.172-.023q.337-.044.657-.1l.23-.039c.224-.039.441-.082.651-.128l.1-.021c.238-.053.465-.111.684-.172l.179-.052q.248-.072.48-.15l.165-.056c.194-.069.382-.14.558-.215l.072-.033q.227-.1.432-.2l.138-.072q.184-.1.35-.2c.029-.018.059-.035.087-.053.132-.085.253-.172.366-.261.028-.023.053-.045.08-.068.049-.041.1-.081.145-.122v3.08a.811.811,0,0,1-.03.182.905.905,0,0,1-.044.136,1.078,1.078,0,0,1-.054.111,1.328,1.328,0,0,1-.086.138c-.025.035-.053.069-.082.1s-.086.1-.136.147c-.03.03-.064.059-.1.089-.062.054-.126.107-.2.16-.031.023-.064.045-.1.068-.085.059-.173.117-.271.174l-.08.045c-.111.063-.229.125-.355.187l-.05.023c-.141.066-.288.132-.445.195l-.014.005a14.529,14.529,0,0,1-3.213.814l-.019,0q-.37.055-.76.1l-.13.012c-.227.024-.457.045-.693.063-.108.008-.221.012-.331.018-.178.011-.354.022-.536.029-.3.009-.6.015-.913.015s-.614-.006-.913-.017c-.182-.007-.358-.018-.536-.029-.11-.006-.223-.011-.331-.018-.236-.017-.466-.039-.693-.063l-.13-.012q-.39-.043-.76-.1l-.019,0a14.571,14.571,0,0,1-3.213-.814l-.014-.005c-.157-.063-.3-.128-.445-.195l-.05-.023c-.126-.061-.243-.123-.355-.187l-.08-.045c-.1-.057-.186-.115-.271-.174l-.1-.068c-.072-.053-.136-.106-.2-.16-.033-.03-.067-.059-.1-.089-.05-.049-.095-.1-.136-.147s-.057-.069-.082-.1A1.328,1.328,0,0,1,1.877,8.5a1.161,1.161,0,0,1-.054-.111.919.919,0,0,1-.044-.136.792.792,0,0,1-.03-.181V4.989c.045.041.1.081.145.122C1.923,5.133,1.948,5.155,1.976,5.178ZM10.382.751c5.087,0,8.632,1.483,8.632,2.815S15.469,6.38,10.382,6.38,1.751,4.9,1.751,3.565,5.3.751,10.382.751Z" transform="translate(-1)" fill="#004370"/>
</svg>
