<svg id="folder-svgrepo-com" xmlns="http://www.w3.org/2000/svg" width="21.342" height="19.402" viewBox="0 0 21.342 19.402">
  <g id="Group_3794" data-name="Group 3794">
    <g id="Group_3793" data-name="Group 3793" transform="translate(0 0)">
      <path id="Path_4030" data-name="Path 4030" d="M20.913,24.9H10.51v-.228A1.414,1.414,0,0,0,9.1,23.263H1.412A1.414,1.414,0,0,0,0,24.675V42.236a.429.429,0,0,0,.429.429H20.913a.429.429,0,0,0,.429-.429v-16.9A.429.429,0,0,0,20.913,24.9ZM.858,24.675a.555.555,0,0,1,.554-.554H9.1a.555.555,0,0,1,.554.554v.657a.429.429,0,0,0,.429.429h10.4v2.775h-.858V27.048a.429.429,0,0,0-.429-.429H2.145a.429.429,0,0,0-.429.429v3.619H.858Zm17.91,2.8v1.059h-7.82a1.124,1.124,0,0,0-1.059.749h0l-.425,1.205a.265.265,0,0,1-.249.177H2.574V27.477H18.768Zm1.716,14.317H.858V31.525H9.215a1.124,1.124,0,0,0,1.059-.75L10.7,29.57a.265.265,0,0,1,.249-.177h9.536v12.4Z" transform="translate(0 -23.263)" fill="#004370"/>
      <path id="Path_4031" data-name="Path 4031" d="M141.008,209.587a2.841,2.841,0,1,0,.812,3.3l1.681.56c0,.051-.007.1-.007.153a1.772,1.772,0,1,0,.287-.964l-1.748-.583c.009-.091.014-.183.014-.276a2.825,2.825,0,0,0-.465-1.554l1.863-1.539a1.771,1.771,0,1,0-.61-.609Zm4.255,3.106a.912.912,0,1,1-.912.912A.913.913,0,0,1,145.263,212.693Zm-6.059,1.072a1.984,1.984,0,1,1,1.984-1.984A1.986,1.986,0,0,1,139.2,213.765Zm5.148-7.507a.912.912,0,1,1-.912.912A.913.913,0,0,1,144.352,206.258Z" transform="translate(-130.678 -197.808)" fill="#00aeef"/>
    </g>
  </g>
</svg>
