<svg xmlns="http://www.w3.org/2000/svg" xmlns:xlink="http://www.w3.org/1999/xlink" width="532.911" height="365.432" viewBox="0 0 532.911 365.432">
  <defs>
    <linearGradient id="linear-gradient" x1="0.523" y1="0.746" x2="0.523" y2="-0.176" gradientUnits="objectBoundingBox">
      <stop offset="0" stop-color="#dedede" stop-opacity="0"/>
      <stop offset="1" stop-color="#a9a9a9" stop-opacity="0.302"/>
    </linearGradient>
    <linearGradient id="linear-gradient-2" x1="0.448" y1="1" x2="0.448" gradientUnits="objectBoundingBox">
      <stop offset="0" stop-color="#fff" stop-opacity="0"/>
      <stop offset="1" stop-color="#96a1c5" stop-opacity="0.373"/>
    </linearGradient>
    <linearGradient id="linear-gradient-3" x1="0.5" y1="1" x2="0.5" y2="-0.197" gradientUnits="objectBoundingBox">
      <stop offset="0" stop-color="#fff" stop-opacity="0"/>
      <stop offset="1" stop-color="#919191" stop-opacity="0.149"/>
    </linearGradient>
    <linearGradient id="linear-gradient-4" y1="0.574" x2="0.932" y2="0.5" gradientUnits="objectBoundingBox">
      <stop offset="0" stop-color="#004370"/>
      <stop offset="1" stop-color="#00538a"/>
    </linearGradient>
    <linearGradient id="linear-gradient-5" x1="0.633" y1="1" x2="0.633" y2="-0.053" gradientUnits="objectBoundingBox">
      <stop offset="0" stop-color="#dce9ff"/>
      <stop offset="1" stop-color="#b6cfff"/>
    </linearGradient>
    <linearGradient id="linear-gradient-6" x1="0.5" x2="0.5" y2="1" gradientUnits="objectBoundingBox">
      <stop offset="0" stop-color="#0071bc"/>
      <stop offset="1" stop-color="#00538a"/>
    </linearGradient>
    <linearGradient id="linear-gradient-7" x1="0.5" x2="0.5" y2="1" gradientUnits="objectBoundingBox">
      <stop offset="0" stop-color="#00538a"/>
      <stop offset="1" stop-color="#004370"/>
    </linearGradient>
  </defs>
  <g id="Group_3739" data-name="Group 3739" transform="translate(-594.893 -468.582)">
    <g id="empty" transform="translate(737.496 595.33)">
      <path id="Path_192" data-name="Path 192" d="M68.112,44.716Q74.1,25.8,79.242,21.159c9.5-8.567,22.628-3.9,25.42-3.237,9.807,2.352,6.618-13.128,15.032-16.275q8.411-3.145,13.838,7.689Q138.338-.772,148.179.062c9.843.833,13.287,34.077,26.813,26.8s30.113-8.944,37.2,1.874c1.531,2.34,2.118-1.291,12.532-13.688s20.8-17.863,42.1-10.643q14.53,4.918,23.907,26.665,0,31.036,45.659,36.74c45.662,5.7,10.219,54.792-45.659,69.169S106.2,159.12,36.381,122.792q-69.815-36.32,31.728-78.076Z" transform="translate(11.824 0)" fill-rule="evenodd" opacity="0.8" fill="url(#linear-gradient)"/>
      <ellipse id="Ellipse_45" data-name="Ellipse 45" cx="84.192" cy="19.487" rx="84.192" ry="19.487" transform="translate(110.237 188.583)" fill="url(#linear-gradient-2)"/>
      <path id="Path_193" data-name="Path 193" d="M336.569,108.748c-63.3,15.878-279.376-2.283-302.374-10.577Q17.4,92.111,3.929,75.381a8.489,8.489,0,0,1,6.612-13.817H388.118Q399.873,92.871,336.569,108.748Z" transform="translate(0 123.637)" fill-rule="evenodd" opacity="0.675" fill="url(#linear-gradient-3)"/>
      <g id="Group_3738" data-name="Group 3738" transform="translate(128.488 119.588)">
        <path id="Path_194" data-name="Path 194" d="M130.546,36.3,101.754,2.633A7.322,7.322,0,0,0,96.228.046H34.318a7.328,7.328,0,0,0-5.526,2.587L0,36.3V54.784H130.546V36.3Z" transform="translate(0 -0.046)" fill="url(#linear-gradient-4)"/>
        <path id="Path_195" data-name="Path 195" d="M116.941,39.5l-25.2-29.324A6.426,6.426,0,0,0,86.862,8H32.791a6.426,6.426,0,0,0-4.879,2.181L2.712,39.5V55.607H116.941V39.5Z" transform="translate(5.446 15.917)" fill="url(#linear-gradient-5)"/>
        <path id="Path_196" data-name="Path 196" d="M130.546,51.627a8.4,8.4,0,0,1-2.978,6.42l-.37.3a8.3,8.3,0,0,1-5.024,1.685H8.375A8.25,8.25,0,0,1,5.454,59.5L5,59.322a8.429,8.429,0,0,1-5-7.7V12.165H31.674a6.355,6.355,0,0,1,6.317,6.371v.045a6.333,6.333,0,0,0,6.35,6.314H86.2a6.356,6.356,0,0,0,6.35-6.338,6.366,6.366,0,0,1,6.317-6.393h31.677Z" transform="translate(0 24.292)" fill="url(#linear-gradient-6)"/>
      </g>
    </g>
    <g id="undraw_empty_re_opql" transform="translate(594.893 468.61)">
      <path id="Path_197" data-name="Path 197" d="M616.088,576.436H608.31l-3.7-30h11.48Z" transform="translate(-158.856 -298.848)" fill="#9e616a"/>
      <path id="Path_198" data-name="Path 198" d="M774.771,746.4h-5.578l-1-5.266-2.55,5.266H750.854a3.326,3.326,0,0,1-1.89-6.062l11.814-8.159v-5.324l12.426.742Z" transform="translate(-313.616 -455.339)" fill="#2f2e41"/>
      <path id="Path_199" data-name="Path 199" d="M699.2,561.925l-6.242,4.641L672.085,544.7l9.212-6.85Z" transform="translate(-174.379 -286.154)" fill="#9e616a"/>
      <path id="Path_200" data-name="Path 200" d="M896.015,719.965l-4.476,3.328-3.941-3.632,1.1,5.748-11.871,8.828a3.326,3.326,0,0,1-5.134-3.737l4.611-13.6-3.177-4.272,10.414-6.82Z" transform="translate(-363.104 -439.829)" fill="#2f2e41"/>
      <path id="Path_201" data-name="Path 201" d="M778.149,398.647s14.758,12.75,7.949,49.1l-8.313,35.614,27.11,44.975-8.644,10.516-35.244-48.68-12.771-29.958-3.583-53.319Z" transform="translate(-295.854 -275.848)" fill="#2f2e41"/>
      <path id="Path_202" data-name="Path 202" d="M598.376,425.746l-.888,13.747,2.716,58.58,12.782-2.226,2.443-41.708Z" transform="translate(-154.045 -232.846)" fill="#2f2e41"/>
      <path id="Path_203" data-name="Path 203" d="M237.444,595.83H244.4L247.708,569H237.443Z" transform="translate(-62.602 -311.189)" fill="#ffb6b6"/>
      <path id="Path_204" data-name="Path 204" d="M402.178,747.054h1.958l7.644-3.109,4.1,3.108h0a8.73,8.73,0,0,1,8.729,8.729v.284H402.178Z" transform="translate(-228.035 -464.684)" fill="#2f2e41"/>
      <path id="Path_205" data-name="Path 205" d="M296.932,586.953l6.785,1.532,9.138-25.441-10.014-2.261Z" transform="translate(-77.017 -306.695)" fill="#ffb6b6"/>
      <path id="Path_206" data-name="Path 206" d="M460.469,739.286l1.91.431,8.141-1.348,3.311,3.934h0a8.73,8.73,0,0,1,6.592,10.438l-.062.277-21.877-4.939Z" transform="translate(-242.416 -461.634)" fill="#2f2e41"/>
      <path id="Path_207" data-name="Path 207" d="M383.954,393.843c-3.261,9.836-2.916,20.512.784,31.971l1.582,64.515s-2.357,42.308,5.248,57.2H402.6l5.461-61.059.686-40.983,23.645,34.576-15.06,66.468,13.574,1.213,24.439-72.133-30.153-69.982Z" transform="translate(-212.774 -273.221)" fill="#2f2e41"/>
      <path id="Path_208" data-name="Path 208" d="M647.216,321.23c8.436-7.6,20.984-11.424,31.509-7.162a52.32,52.32,0,0,0-23.512,27.158c-1.676,4.458-3.075,9.591-7.2,11.978a11.7,11.7,0,0,1-8.63.841,34.734,34.734,0,0,1-8.11-3.577l-.74-.017C633.857,339.592,638.78,328.832,647.216,321.23Z" transform="translate(-275.949 -228.624)" fill="#e6e6e6"/>
      <path id="Path_209" data-name="Path 209" d="M678.808,316.112a44.719,44.719,0,0,0-24.879,11.75,19.258,19.258,0,0,0-3.781,4.7,11.045,11.045,0,0,0-1.277,5.671,22.86,22.86,0,0,1-.1,5.533,6.763,6.763,0,0,1-3.364,4.39A17.572,17.572,0,0,1,638.664,350c-2.579.316-5.263.6-7.5,2.05-.271.175-.527-.255-.257-.43,3.884-2.517,8.8-1.6,12.976-3.281a6.849,6.849,0,0,0,4.284-4.24,17.739,17.739,0,0,0,.206-5.615,11.786,11.786,0,0,1,1.042-5.592,17.8,17.8,0,0,1,3.587-4.83,43.386,43.386,0,0,1,11.026-7.893,45.512,45.512,0,0,1,14.772-4.558c.319-.041.321.46,0,.5Z" transform="translate(-275.985 -230.437)" fill="#fff"/>
      <path id="Path_210" data-name="Path 210" d="M684.945,327.255a6.709,6.709,0,0,1,.74-8.656c.229-.226.591.12.362.346a6.213,6.213,0,0,0-.672,8.054c.188.261-.243.516-.43.257Z" transform="translate(-307.387 -232.031)" fill="#fff"/>
      <path id="Path_211" data-name="Path 211" d="M669.991,361.209a12.932,12.932,0,0,0,9.241-1.85c.271-.174.527.256.257.43a13.451,13.451,0,0,1-9.62,1.906c-.318-.057-.193-.542.122-.485Z" transform="translate(-300.874 -254.34)" fill="#fff"/>
      <path id="Path_212" data-name="Path 212" d="M713.889,321.8a3.8,3.8,0,0,0,2.84,2.218c.318.053.194.538-.122.485a4.256,4.256,0,0,1-3.148-2.447.259.259,0,0,1,.087-.343.252.252,0,0,1,.343.087Z" transform="translate(-314.978 -233.756)" fill="#fff"/>
      <path id="Path_213" data-name="Path 213" d="M689.589,380.959c-.2-.028-.4-.055-.6-.08a50.012,50.012,0,0,0-8.1-.412c-.209,0-.422.009-.631.018a52.727,52.727,0,0,0-18.918,4.355,51.2,51.2,0,0,0-6.871,3.65c-3.03,1.919-6.163,4.24-9.551,5.023a8.788,8.788,0,0,1-1.07.191l-14-12.119c-.018-.044-.039-.084-.057-.128L629.21,381c.108-.08.222-.16.33-.239.063-.046.128-.09.191-.137.043-.03.086-.06.122-.09l.04-.027c.037-.03.074-.053.108-.08q.953-.675,1.919-1.339s0,0,.009,0a75.291,75.291,0,0,1,15.678-8.428c.166-.063.335-.129.508-.186a48.861,48.861,0,0,1,7.676-2.16,43.2,43.2,0,0,1,4.329-.6,35.921,35.921,0,0,1,11.2.794c7.315,1.7,14.006,5.713,17.969,11.977C689.392,380.638,689.49,380.8,689.589,380.959Z" transform="translate(-270.298 -258.855)" fill="#e6e6e6"/>
      <path id="Path_214" data-name="Path 214" d="M689.77,389.757a44.72,44.72,0,0,0-26.939-5.6,19.256,19.256,0,0,0-5.85,1.478,11.045,11.045,0,0,0-4.434,3.759,22.863,22.863,0,0,1-3.409,4.359,6.763,6.763,0,0,1-5.329,1.48,17.57,17.57,0,0,1-6.495-2.59c-2.25-1.3-4.566-2.687-7.219-2.876-.321-.023-.267-.52.054-.5,4.617.329,7.99,4.02,12.336,5.193a6.849,6.849,0,0,0,5.973-.806A17.737,17.737,0,0,0,652,389.3a11.786,11.786,0,0,1,4.2-3.837,17.8,17.8,0,0,1,5.772-1.7,43.386,43.386,0,0,1,13.556.336,45.514,45.514,0,0,1,14.538,5.254c.279.159-.02.56-.3.4Z" transform="translate(-270.482 -267.502)" fill="#fff"/>
      <path id="Path_215" data-name="Path 215" d="M709.2,376.176a6.709,6.709,0,0,1,5.8-6.466c.319-.042.4.452.08.494a6.213,6.213,0,0,0-5.385,6.026c-.007.322-.5.266-.5-.054Z" transform="translate(-312.827 -260.021)" fill="#fff"/>
      <path id="Path_216" data-name="Path 216" d="M680.334,394.718a12.932,12.932,0,0,0,8.492,4.086c.321.024.267.522-.054.5a13.451,13.451,0,0,1-8.828-4.27C679.725,394.795,680.117,394.482,680.334,394.718Z" transform="translate(-303.853 -273.654)" fill="#fff"/>
      <path id="Path_217" data-name="Path 217" d="M740.366,387.857a3.8,3.8,0,0,0,.933,3.481c.222.234-.169.546-.39.314a4.256,4.256,0,0,1-1.04-3.849.259.259,0,0,1,.276-.222A.252.252,0,0,1,740.366,387.857Z" transform="translate(-322.822 -269.796)" fill="#fff"/>
      <path id="Path_218" data-name="Path 218" d="M191.882,695.139a11.172,11.172,0,0,1-4.468,6.013c-.34.245-.689.471-1.042.684-.109.063-.217.131-.331.19s-.245.141-.367.2h-9.8c-.177-.358-.349-.72-.521-1.078-4.2-8.827-7.15-18.351-6.647-28.053a35.912,35.912,0,0,1,2.343-10.988c2.692-7.01,7.6-13.077,14.359-16.131.168-.077.344-.154.517-.227-.054.195-.109.385-.163.58a50.2,50.2,0,0,0-1.532,7.97c-.027.208-.05.417-.068.63a52.586,52.586,0,0,0,1.686,19.344c0,.014.009.032.014.045q.578,2.087,1.341,4.11c.4,1.065.829,2.116,1.3,3.149C190.468,685.918,193.105,690.54,191.882,695.139Z" transform="translate(-168.648 -410.985)" fill="#e6e6e6"/>
      <path id="Path_219" data-name="Path 219" d="M195.213,645.676c-.1.127-.19.249-.285.376a44.463,44.463,0,0,0-5.039,8.5c-.073.15-.141.3-.2.453a44.321,44.321,0,0,0-3.543,13.249.674.674,0,0,0-.009.1c-.113,1.069-.181,2.148-.208,3.226a19.248,19.248,0,0,0,.648,6,10.77,10.77,0,0,0,2.474,4.268c.113.122.227.245.349.363.091.1.19.19.285.281.915.875,1.917,1.686,2.778,2.624a9.714,9.714,0,0,1,1.065,1.359,6.753,6.753,0,0,1,.725,5.483,17.536,17.536,0,0,1-3.466,6.072c-.72.924-1.464,1.858-2.107,2.846-.236.353-.453.711-.652,1.078h-.571c.19-.367.4-.725.625-1.078,1.654-2.605,4.006-4.844,5.225-7.712a6.836,6.836,0,0,0,.032-6.026,8.013,8.013,0,0,0-1.1-1.532c-.829-.938-1.822-1.74-2.723-2.587-.227-.213-.449-.43-.662-.657a11.312,11.312,0,0,1-2.556-4.033,17.776,17.776,0,0,1-.879-5.95c0-1.287.068-2.583.195-3.87.014-.163.032-.331.05-.5a45.66,45.66,0,0,1,8.913-22.307c.091-.127.186-.249.281-.371C195.05,645.073,195.408,645.427,195.213,645.676Z" transform="translate(-177.816 -410.704)" fill="#fff"/>
      <path id="Path_220" data-name="Path 220" d="M179.609,688.361a6.709,6.709,0,0,1-5.6-6.644.25.25,0,0,1,.5-.011,6.213,6.213,0,0,0,5.22,6.17c.318.052.194.537-.122.485Z" transform="translate(-171.581 -430.518)" fill="#fff"/>
      <path id="Path_221" data-name="Path 221" d="M193.03,716.537a12.932,12.932,0,0,0,5.226-7.843c.068-.315.554-.192.485.122a13.451,13.451,0,0,1-5.455,8.15c-.265.184-.52-.247-.257-.43Z" transform="translate(-181.921 -445.306)" fill="#fff"/>
      <path id="Path_222" data-name="Path 222" d="M194.587,665.089a3.8,3.8,0,0,0,3.577-.44c.263-.187.517.244.257.43a4.256,4.256,0,0,1-3.956.5.259.259,0,0,1-.181-.3.252.252,0,0,1,.3-.181Z" transform="translate(-182.664 -421.293)" fill="#fff"/>
      <path id="Path_223" data-name="Path 223" d="M231.421,684.014c-.159.122-.322.245-.48.372a50.012,50.012,0,0,0-6.022,5.437c-.145.15-.29.3-.43.458l0,0a52.719,52.719,0,0,0-10.268,16.376l-.014.041c0,.014-.009.023-.014.036a51.853,51.853,0,0,0-2.279,7.44,61.421,61.421,0,0,1-1.871,7.508c-.131.367-.276.729-.43,1.078H189.462c.068-.358.14-.721.213-1.078a72.636,72.636,0,0,1,4.776-15.27c.072-.163.145-.326.227-.489a49.079,49.079,0,0,1,3.9-6.955,0,0,0,0,1,0,0h0a43.008,43.008,0,0,1,2.628-3.484,35.85,35.85,0,0,1,8.482-7.359c.018-.014.041-.023.059-.036,6.362-3.947,13.9-5.827,21.111-4.2h0C231.054,683.927,231.235,683.968,231.421,684.014Z" transform="translate(-180.031 -431.519)" fill="#e6e6e6"/>
      <path id="Path_224" data-name="Path 224" d="M240.143,684.791c-.154.041-.308.086-.458.131a44.668,44.668,0,0,0-9.139,3.747c-.145.077-.29.159-.435.24a44.522,44.522,0,0,0-10.78,8.424.016.016,0,0,0,0,.009c-.036.036-.077.077-.109.113-.725.779-1.423,1.59-2.084,2.424a19.378,19.378,0,0,0-3.09,5.179,10.727,10.727,0,0,0-.594,4.9c.014.168.036.331.059.5.018.131.036.263.059.4a23,23,0,0,1,.671,5.492,6.756,6.756,0,0,1-2.723,4.817,10.784,10.784,0,0,1-1.667,1.06,16.7,16.7,0,0,1-2.615,1.078h-1.781l.716-.2a21.846,21.846,0,0,0,2.506-.875,12.181,12.181,0,0,0,1.359-.671,6.86,6.86,0,0,0,3.657-4.794,17.8,17.8,0,0,0-.575-5.587c-.054-.317-.1-.63-.131-.943a11.074,11.074,0,0,1,.385-4.74,17.7,17.7,0,0,1,2.882-5.283,37.766,37.766,0,0,1,2.483-2.968q.163-.183.34-.367a45.72,45.72,0,0,1,10.97-8.487h0a44.985,44.985,0,0,1,9.561-3.96h0c.15-.045.3-.091.453-.131C240.379,684.211,240.451,684.7,240.143,684.791Z" transform="translate(-188.775 -432.056)" fill="#fff"/>
      <path id="Path_225" data-name="Path 225" d="M232.9,702.663a6.709,6.709,0,0,1-.47-8.675c.2-.256.6.037.406.293a6.213,6.213,0,0,0,.453,8.069c.223.233-.169.545-.39.314Z" transform="translate(-202.779 -437.309)" fill="#fff"/>
      <path id="Path_226" data-name="Path 226" d="M222.429,737.1a12.932,12.932,0,0,0,8.894-3.116c.244-.21.558.18.314.39a13.451,13.451,0,0,1-9.262,3.223C222.053,737.589,222.109,737.091,222.429,737.1Z" transform="translate(-197.912 -459.206)" fill="#fff"/>
      <path id="Path_227" data-name="Path 227" d="M260.111,693.562a3.8,3.8,0,0,0,3.121,1.8c.322.009.266.506-.054.5a4.256,4.256,0,0,1-3.457-1.986.259.259,0,0,1,.038-.352A.251.251,0,0,1,260.111,693.562Z" transform="translate(-218.425 -437.08)" fill="#fff"/>
      <path id="Path_228" data-name="Path 228" d="M594.643,290.466a5.256,5.256,0,0,1-8.05.38L569.464,298.3l1.668-9.562,16.009-5.608a5.284,5.284,0,0,1,7.5,7.341Z" transform="translate(-269.338 -212.033)" fill="#ffb8b8"/>
      <path id="Path_229" data-name="Path 229" d="M487.285,275.206,447.5,292.927l-.085-.031-45.343-16.158a14.935,14.935,0,0,1-6.7-19.374h0a14.919,14.919,0,0,1,21.291-6.632L450.41,271.06l32.721-4.241Z" transform="translate(-210.283 -193.787)" fill="#443e57"/>
      <path id="Path_231" data-name="Path 231" d="M427.169,314.444l-40.1-6.415a7.655,7.655,0,0,1-4.511-10.715l1.819-3.638-.706-38.219a28.312,28.312,0,0,1,13.746-24.765l3.911-2.338,1.976-5.019,18.225.445.053,6.583,6.527,10.407v.043l-.41,56.647-1.8,5.846,2.72,6.8Z" transform="translate(-218.41 -179.974)" fill="#443e57"/>
      <circle id="Ellipse_46" data-name="Ellipse 46" cx="16.559" cy="16.559" r="16.559" transform="translate(187.037 4.002)" fill="#ffb8b8"/>
      <path id="Path_232" data-name="Path 232" d="M414.7,151.778a21.905,21.905,0,0,1,.012-7.1,19.884,19.884,0,0,1,8.416-13.807,6.062,6.062,0,0,1,3.02-1.2,2.607,2.607,0,0,1,2.621,1.585,5.434,5.434,0,0,1,3.066-3.04,9.577,9.577,0,0,1,4.364-.588,15.949,15.949,0,0,1,13.305,9.511c.442,1.051,1.678-2.83,2.238-1.838a4.414,4.414,0,0,0,2.5,2.2c1.1.306,1.544,4.83,1.976,3.776a5.029,5.029,0,0,1-4.808,7.012,27.689,27.689,0,0,1-3.291-.63,8.2,8.2,0,0,0-8.982,6.14,10.869,10.869,0,0,0-1.43-3.181,3.679,3.679,0,0,0-2.951-1.622,4.133,4.133,0,0,0-2.84,1.633c-.729.856-1.276,1.855-2.011,2.706-2.155,2.5-5.069,8.324-8.14,7.9C419.347,160.894,415.378,154.619,414.7,151.778Z" transform="translate(-227.065 -127.607)" fill="#2f2e41"/>
      <path id="Path_233" data-name="Path 233" d="M569.655,319.727a3.232,3.232,0,0,0-2.178-3.559l-44.593-14.852a3.231,3.231,0,0,0-1.329-.153l-11.177,1.057-6.413.608-11.835,1.118a3.242,3.242,0,0,0-2.893,2.714L483.228,344.2a3.256,3.256,0,0,0,2.032,3.533l45.059,17.393a3.148,3.148,0,0,0,.655.176,3.234,3.234,0,0,0,.986.007l29.116-4.315a3.226,3.226,0,0,0,2.729-2.718Z" transform="translate(-229.265 -222.529)" fill="#fff"/>
      <path id="Path_234" data-name="Path 234" d="M489.7,348.506,534.759,365.9a.407.407,0,0,0,.207.024l29.112-4.315a.4.4,0,0,0,.342-.341l5.854-38.546a.41.41,0,0,0-.272-.445l-.3-.1-44.3-14.747a.307.307,0,0,0-.062-.015.4.4,0,0,0-.1-.005l-27.262,2.58-2.163.2a.409.409,0,0,0-.36.339l-6.008,37.534a.407.407,0,0,0,.254.443Z" transform="translate(-232.547 -225.95)" fill="url(#linear-gradient-7)"/>
      <path id="Path_235" data-name="Path 235" d="M508.282,309.987l27.262-2.58a.4.4,0,0,1,.1.005.307.307,0,0,1,.062.015l44.3,14.747-11.685,1.237-4.373.461-12.443,1.315a.88.88,0,0,1-.109,0l-.071-.02Z" transform="translate(-239.67 -225.95)" fill="#2f2e41"/>
      <path id="Path_236" data-name="Path 236" d="M485.257,347.731l45.059,17.392a3.048,3.048,0,0,0,.657.172,3.273,3.273,0,0,0,.987.012l29.112-4.315a3.233,3.233,0,0,0,2.732-2.721l5.85-38.546a3.259,3.259,0,0,0-.19-1.684c-.03-.071-.059-.142-.094-.209a3.168,3.168,0,0,0-1.026-1.222,3.232,3.232,0,0,0-.868-.443l-.053-.019-44.538-14.834a4.049,4.049,0,0,0-.556-.135,3.212,3.212,0,0,0-.777-.015l-11.175,1.053-6.413.612-11.837,1.118a3.214,3.214,0,0,0-1.368.452.6.6,0,0,0-.092.055.542.542,0,0,0-.059.044,3.239,3.239,0,0,0-1.371,2.159L483.223,344.2a3.26,3.26,0,0,0,2.034,3.535Zm4.777-40.943a2.4,2.4,0,0,1,.575-1.21,2.107,2.107,0,0,1,.306-.3,2.409,2.409,0,0,1,1.053-.491,1.83,1.83,0,0,1,.231-.033l19.93-1.883,9.5-.9c.064-.008.124-.006.183-.01a2.269,2.269,0,0,1,.429.032,1.877,1.877,0,0,1,.383.091l44.591,14.853.1.037a2.428,2.428,0,0,1,1.538,2.628L563,358.149a2.424,2.424,0,0,1-2.043,2.04L531.84,364.5a2.454,2.454,0,0,1-1.234-.141l-45.059-17.387a2.448,2.448,0,0,1-1.522-2.649Z" transform="translate(-229.264 -222.528)" fill="#3f3d56"/>
      <path id="Path_237" data-name="Path 237" d="M499.326,308.668a.4.4,0,0,1,.121-.175.47.47,0,0,1,.058-.04c.019-.007.038-.019.057-.026a.4.4,0,0,1,.283,0l.938.331L546.6,324.915l10.723-1.133,6-.633,12.7-1.345,1.136-.119.221-.024a.41.41,0,0,1,.431.3.335.335,0,0,1,.012.065.4.4,0,0,1-.249.418.448.448,0,0,1-.112.03l-1.545.162-12.507,1.322-4.373.461L546.6,325.73a.874.874,0,0,1-.109,0l-.071-.02L499.73,309.244l-.158-.056a.3.3,0,0,1-.1-.055A.412.412,0,0,1,499.326,308.668Z" transform="translate(-235.362 -226.493)" fill="#3f3d56"/>
      <path id="Path_238" data-name="Path 238" d="M588.507,389.321a.405.405,0,0,1-.336-.46l6.578-43.651a.405.405,0,0,1,.461-.34h0a.405.405,0,0,1,.336.46l-6.578,43.651a.405.405,0,0,1-.461.34Z" transform="translate(-280.145 -246.436)" fill="#3f3d56"/>
      <path id="Path_239" data-name="Path 239" d="M620.436,384.289l-4.375.462,5.117-43.289s5.843-1.058,6-.634C627.274,341.081,620.478,384.011,620.436,384.289Z" transform="translate(-286.324 -244.173)" fill="#3f3d56"/>
      <path id="Path_240" data-name="Path 240" d="M331.108,182.533l-.118,19.741,34.948,13.316,12.55-16.858Z" transform="translate(-77.101 -99.839)" fill="#3f3d56"/>
      <path id="Path_241" data-name="Path 241" d="M614.966,308.51a2.4,2.4,0,0,0-1.131-.787l-44.59-14.852a2.316,2.316,0,0,0-.384-.094,2.268,2.268,0,0,0-.431-.032l.072-.452.446-.323,10.589-7.666L614.9,295.141l.061,12.258Z" transform="translate(-262.125 -213.316)" fill="url(#linear-gradient-6)"/>
      <path id="Path_242" data-name="Path 242" d="M502.931,380.076a.686.686,0,0,1,.148.031L516.76,384.6a.68.68,0,1,1-.424,1.292L502.655,381.4a.68.68,0,0,1,.276-1.323Z" transform="translate(-255.385 -265.691)" fill="#fff"/>
      <circle id="Ellipse_47" data-name="Ellipse 47" cx="5.437" cy="5.437" r="5.437" transform="translate(327.88 186.325)" fill="#f2f2f2"/>
      <circle id="Ellipse_48" data-name="Ellipse 48" cx="5.437" cy="5.437" r="5.437" transform="translate(62.986 206.262)" fill="#f2f2f2"/>
      <circle id="Ellipse_49" data-name="Ellipse 49" cx="5.437" cy="5.437" r="5.437" transform="translate(286.619 26.373)" fill="#f2f2f2"/>
      <path id="Path_243" data-name="Path 243" d="M558.212,382.03A5.256,5.256,0,0,1,551,378.424l-18.583-1.877,6.131-7.525,16.707,2.937a5.285,5.285,0,0,1,2.953,10.071Z" transform="translate(-259.223 -259.647)" fill="#ffb8b8"/>
      <path id="Path_244" data-name="Path 244" d="M470.571,314.605l-43.368-4-.06-.068-31.651-36.266a14.935,14.935,0,0,1,3.631-20.175h0a14.919,14.919,0,0,1,21.815,4.626l19.494,34.231,30.615,12.3Z" transform="translate(-214.06 -195.207)" fill="#443e57"/>
      <path id="Path_245" data-name="Path 245" d="M754.741,203.761c-1.077-7.9-2.428-16.381-8-22.084a18.736,18.736,0,0,0-27.071.28c-4.056,4.327-5.847,10.4-6.011,16.33s1.156,11.791,2.621,17.537a54.053,54.053,0,0,0,22.559-4.44,36.347,36.347,0,0,1,5.409-2.123c1.88-.478,3.219.725,4.968,1.565l.96-1.838c.786,1.462,3.218,1.029,4.1-.377S754.964,205.405,754.741,203.761Z" transform="translate(-298.642 -154.106)" fill="#2f2e41"/>
      <path id="Path_246" data-name="Path 246" d="M687.039,315.459l-31.662.677a5.009,5.009,0,1,0-2.238,7.057c4.2.239,37.053,4.9,39.013,1.9,1.989-3.05,12.608-13.814,12.608-13.814l-8.162-11.62Z" transform="translate(-274.784 -221.712)" fill="#9e616a"/>
      <circle id="Ellipse_50" data-name="Ellipse 50" cx="14.876" cy="14.876" r="14.876" transform="translate(414.962 27.718)" fill="#9e616a"/>
      <path id="Path_247" data-name="Path 247" d="M599.361,299.184" transform="translate(-285.409 -221.454)" fill="#6c63ff"/>
      <path id="Path_248" data-name="Path 248" d="M762.837,273.736c-1.753-3.489-2.6-7.8-6.342-8.93-2.524-.764-12.731.381-15.031,1.67-3.826,2.145-.359,6.164-2.616,9.924-2.454,4.088-9.122,12.293-11.576,16.381-1.687,2.811,4,11.06,3.083,14.209a12.831,12.831,0,0,0,.6,9.569c1.391,2.583-.621,4.869.777,7.448,1.454,2.682,3.239,12.711,1.886,15.446l-.906,2.719c8.993.528,16.555-10.215,25.492-11.347a13.851,13.851,0,0,0,6.354-1.937c2.694-1.9,3.76-5.342,4.425-8.57A72.194,72.194,0,0,0,762.837,273.736Z" transform="translate(-300.735 -202.519)" fill="#3f3d56"/>
      <path id="Path_249" data-name="Path 249" d="M793.157,343.441c-1.253-3.419-3.52-18.368-3.52-18.368l-14.194-.416,6.939,17.115-18.936,26.509.1.162a5.008,5.008,0,1,0,4.2,5.322.346.346,0,0,0,.434-.075C770.287,371.047,794.41,346.86,793.157,343.441Z" transform="translate(-312.136 -235.385)" fill="#9e616a"/>
      <path id="Path_250" data-name="Path 250" d="M805.789,312.5c-.184-5.415-.35-17.43-2.546-22.637a34.1,34.1,0,0,0-9.763-13.641,11.417,11.417,0,0,0-4.767-2.467,5.5,5.5,0,0,0-5.015,1.351c-1.992,2.1-1.393,5.458-.662,8.255,2.154,8.247,5.546,23.829,7.7,32.076,6.426-1.469,8.832-2.278,15.053-2.937Z" transform="translate(-323.046 -207.481)" fill="#3f3d56"/>
      <path id="Path_251" data-name="Path 251" d="M746.048,200.554a51.619,51.619,0,0,0-2.407-10.616,17.157,17.157,0,0,0-6.338-8.482c-4.712-3.039-10.812-2.453-16.1-.7a24.417,24.417,0,0,0-10.955,6.71c-2.881,3.3-4.5,8.017-3.428,12.337l16.906-3.994-.617.436a13.611,13.611,0,0,1,7.264,9.467A14.1,14.1,0,0,1,727.4,217.42l11.53-4.09c2.372-.842,4.911-1.811,6.318-3.97C746.882,206.858,746.5,203.541,746.048,200.554Z" transform="translate(-297.568 -155.897)" fill="#2f2e41"/>
    </g>
  </g>
</svg>
