<svg id="logout-svgrepo-com" xmlns="http://www.w3.org/2000/svg" width="18.024" height="19.934" viewBox="0 0 18.024 19.934">
  <g id="Group_3796" data-name="Group 3796">
    <path id="Path_4032" data-name="Path 4032" d="M26.8,18.792H21.2a2.667,2.667,0,0,1-2.756-2.559V3.7A2.667,2.667,0,0,1,21.2,1.142h5.69A.592.592,0,0,0,27.51.571.592.592,0,0,0,26.895,0H21.2a3.856,3.856,0,0,0-3.986,3.7V16.233a3.856,3.856,0,0,0,3.986,3.7h5.6a.573.573,0,1,0,0-1.142Z" transform="translate(-17.219)" fill="#004370"/>
    <path id="Path_4033" data-name="Path 4033" d="M135.529,140.415l-3.909-3.909a.615.615,0,1,0-.87.87l2.861,2.861H121.134a.615.615,0,1,0,0,1.23h12.477l-2.861,2.861a.617.617,0,0,0,.433,1.052.6.6,0,0,0,.433-.182l3.909-3.909A.615.615,0,0,0,135.529,140.415Z" transform="translate(-118.186 -130.881)" fill="#00aeef" stroke="#00aeef" stroke-width="1"/>
  </g>
</svg>
