<svg xmlns="http://www.w3.org/2000/svg" width="871.402" height="1037.629" viewBox="0 0 871.402 1037.629">
  <g id="undraw_file_searching_re_3evy" transform="translate(-0.004 0)">
    <path id="Path_4119" data-name="Path 4119" d="M863.756,671.016l-376.678,97a49.808,49.808,0,0,1-60.587-35.773L312.575,289.865a49.808,49.808,0,0,1,35.773-60.586l350.438-90.242,89.694,40.154L899.529,610.43a49.808,49.808,0,0,1-35.773,60.587Z" transform="translate(-310.999 -139.037)" fill="#f2f2f2"/>
    <path id="Path_4120" data-name="Path 4120" d="M347.1,238.058A35.469,35.469,0,0,0,321.623,281.2L435.54,723.58a35.469,35.469,0,0,0,43.145,25.475l376.678-97a35.469,35.469,0,0,0,25.475-43.145L771.509,184.354l-78.826-35.288Z" transform="translate(-306.177 -133.946)" fill="#fff"/>
    <path id="Path_4121" data-name="Path 4121" d="M657.244,181.075l-58.3,15.012a16.57,16.57,0,0,1-20.179-11.914l-11.087-43.057a1.036,1.036,0,0,1,1.423-1.2l88.3,39.214a1.036,1.036,0,0,1-.162,1.95Z" transform="translate(-180.72 -138.639)" fill="#f2f2f2"/>
    <path id="Path_4122" data-name="Path 4122" d="M667.963,423.256,496.468,467.419a8.285,8.285,0,0,1-4.132-16.046l171.5-44.162a8.285,8.285,0,1,1,4.132,16.046Z" transform="translate(-222.109 -3.04)" fill="#ccc"/>
    <path id="Path_4123" data-name="Path 4123" d="M705.685,435.565,501.093,488.249a8.285,8.285,0,0,1-4.132-16.047l204.592-52.685a8.285,8.285,0,1,1,4.132,16.046Z" transform="translate(-219.761 3.207)" fill="#ccc"/>
    <path id="Path_4124" data-name="Path 4124" d="M698.18,446.354l-227.764,58.63a25.659,25.659,0,0,1-31.209-18.432L391.476,301.128a25.659,25.659,0,0,1,18.431-31.21l227.764-58.63a25.658,25.658,0,0,1,31.209,18.431l47.731,185.424a25.658,25.658,0,0,1-18.432,31.211Z" transform="translate(-270.561 -102.772)" fill="#fff"/>
    <path id="Path_4125" data-name="Path 4125" d="M698.18,446.354l-227.764,58.63a25.659,25.659,0,0,1-31.209-18.432L391.476,301.128a25.659,25.659,0,0,1,18.431-31.21l227.764-58.63a25.658,25.658,0,0,1,31.209,18.431l47.731,185.424a25.658,25.658,0,0,1-18.432,31.211ZM410.658,272.839A22.64,22.64,0,0,0,394.4,300.377L442.126,485.8a22.64,22.64,0,0,0,27.538,16.263l227.764-58.63A22.64,22.64,0,0,0,713.691,415.9L665.96,230.472a22.64,22.64,0,0,0-27.538-16.263Z" transform="translate(-270.561 -102.772)" fill="#e6e6e6"/>
    <path id="Path_411" data-name="Path 411" d="M587.284,255.117l-114.95,29.59a4.117,4.117,0,0,1-4.988-2.591,3.966,3.966,0,0,1,2.793-5.034l117.011-30.121c4.727,2.395,3.483,7.294.131,8.156Z" transform="translate(-231.729 -84.253)" fill="#f2f2f2"/>
    <path id="Path_412" data-name="Path 412" d="M590.727,268.491l-114.95,29.59a4.117,4.117,0,0,1-4.988-2.591,3.966,3.966,0,0,1,2.793-5.034l117.012-30.121c4.727,2.395,3.483,7.294.131,8.156Z" transform="translate(-229.982 -77.464)" fill="#f2f2f2"/>
    <path id="Path_413" data-name="Path 413" d="M476.791,314.125l-35.081,9.031a4.466,4.466,0,0,1-5.432-3.208l-10.657-41.4a4.466,4.466,0,0,1,3.208-5.432l35.081-9.03a4.467,4.467,0,0,1,5.432,3.208L480,308.693a4.466,4.466,0,0,1-3.208,5.432Z" transform="translate(-252.889 -75.631)" fill="#e6e6e6"/>
    <path id="Path_414" data-name="Path 414" d="M617.92,295.931,442.485,341.091A4.117,4.117,0,0,1,437.5,338.5a3.966,3.966,0,0,1,2.793-5.034l177.5-45.69c4.727,2.395,3.483,7.294.131,8.156Z" transform="translate(-246.882 -63.535)" fill="#f2f2f2"/>
    <path id="Path_415" data-name="Path 415" d="M621.364,309.309,445.929,354.469a4.117,4.117,0,0,1-4.988-2.591,3.966,3.966,0,0,1,2.793-5.034l177.5-45.691c4.727,2.4,3.483,7.294.131,8.156Z" transform="translate(-245.133 -56.744)" fill="#f2f2f2"/>
    <path id="Path_416" data-name="Path 416" d="M624.8,322.678,449.371,367.838a4.117,4.117,0,0,1-4.988-2.591,3.966,3.966,0,0,1,2.793-5.034l177.5-45.691c4.727,2.395,3.483,7.294.131,8.156Z" transform="translate(-243.386 -49.957)" fill="#f2f2f2"/>
    <path id="Path_417" data-name="Path 417" d="M628.249,336.055,452.814,381.215a4.117,4.117,0,0,1-4.988-2.591,3.966,3.966,0,0,1,2.794-5.034l177.5-45.69c4.727,2.395,3.483,7.294.131,8.156Z" transform="translate(-241.638 -43.167)" fill="#f2f2f2"/>
    <path id="Path_418" data-name="Path 418" d="M631.689,349.425,456.256,394.585a4.117,4.117,0,0,1-4.988-2.591,3.966,3.966,0,0,1,2.793-5.034l177.5-45.691c4.727,2.4,3.483,7.294.131,8.156Z" transform="translate(-239.891 -36.38)" fill="#f2f2f2"/>
    <path id="Path_395" data-name="Path 395" d="M451.959,478.058a3.037,3.037,0,0,1-1.921-.132L450,477.91l-7.977-3.381a3.058,3.058,0,0,1,2.393-5.629l5.169,2.2,6.774-15.935a3.057,3.057,0,0,1,4.009-1.617h0l-.041.1.042-.1a3.06,3.06,0,0,1,1.617,4.01l-7.969,18.736a3.059,3.059,0,0,1-2.058,1.762Z" transform="translate(-245.436 20.491)" fill="#fff"/>
    <path id="Path_4126" data-name="Path 4126" d="M926.207,882.291H532.8c-27.778-.036-50.289-25.944-50.32-57.913V292.628c.031-31.97,22.542-57.877,50.32-57.913h366l77.726,71.3V824.378C976.494,856.347,953.984,882.254,926.207,882.291Z" transform="translate(-229.539 -90.469)" fill="#e6e6e6"/>
    <path id="Path_4127" data-name="Path 4127" d="M532.852,244.215a40.924,40.924,0,0,0-40.878,40.878V812.162a40.924,40.924,0,0,0,40.878,40.878H981.643a40.924,40.924,0,0,0,40.878-40.878V306.324L944.6,244.214Z" transform="translate(-219.135 -85.647)" fill="#fff"/>
    <path id="Path_4130" data-name="Path 4130" d="M785.709,404.443H608.623a8.284,8.284,0,0,0,0,16.569H785.709a8.284,8.284,0,0,0,0-16.569Z" transform="translate(-164.126 -4.311)" fill="#ccc"/>
    <path id="Path_4131" data-name="Path 4131" d="M819.886,422.993H608.623a8.284,8.284,0,1,0,0,16.569H819.886a8.284,8.284,0,0,0,0-16.569Z" transform="translate(-164.126 5.105)" fill="#ccc"/>
    <path id="Path_4132" data-name="Path 4132" d="M785.711,504.133H608.62a8.285,8.285,0,1,1,0-16.57H785.711a8.285,8.285,0,0,1,0,16.57Z" transform="translate(-164.129 37.882)" fill="#ccc"/>
    <path id="Path_4133" data-name="Path 4133" d="M819.886,522.68H608.62a8.285,8.285,0,1,1,0-16.57H819.886a8.285,8.285,0,0,1,0,16.57Z" transform="translate(-164.129 47.297)" fill="#ccc"/>
    <path id="Path_395-2" data-name="Path 395" d="M558.337,351a3.037,3.037,0,0,1-1.827-.607l-.033-.025-6.882-5.264a3.058,3.058,0,0,1,3.721-4.854l4.458,3.418,10.533-13.742a3.057,3.057,0,0,1,4.286-.566h0l-.065.091.067-.091a3.061,3.061,0,0,1,.565,4.287l-12.389,16.156A3.058,3.058,0,0,1,558.34,351Z" transform="translate(-190.493 -42.743)" fill="#fff"/>
    <path id="Path_4134" data-name="Path 4134" d="M598.052,429.075a29.282,29.282,0,0,1-29.278,29.293,6.3,6.3,0,0,1-.754-.03,29.281,29.281,0,1,1,30.032-29.263Z" transform="translate(-195.015 -6.676)" fill="#ccc"/>
    <circle id="Ellipse_44" data-name="Ellipse 44" cx="29.283" cy="29.283" r="29.283" transform="translate(341.464 518.429)" fill="#ccc"/>
    <path id="Path_4135" data-name="Path 4135" d="M831.33,297.549h-60.2a16.57,16.57,0,0,1-16.57-16.57V236.518a1.036,1.036,0,0,1,1.679-.812l75.732,60a1.036,1.036,0,0,1-.643,1.848Z" transform="translate(-85.839 -90.08)" fill="#ccc"/>
    <path id="Path_4136" data-name="Path 4136" d="M589.979,428.934A29.282,29.282,0,0,1,560.7,458.227a6.3,6.3,0,0,1-.754-.03,63.4,63.4,0,0,1,5.684-58.134A29.3,29.3,0,0,1,589.979,428.934Z" transform="translate(-186.941 -6.535)" fill="#0071bc"/>
    <path id="Path_4137" data-name="Path 4137" d="M600.334,412.735a8.307,8.307,0,0,1,8.292-8.292h44.128a62.679,62.679,0,0,1,5.442,16.569h-49.57a8.293,8.293,0,0,1-8.292-8.275Z" transform="translate(-164.129 -4.311)" fill="#0071bc"/>
    <path id="Path_4138" data-name="Path 4138" d="M659.219,422.993a63.209,63.209,0,0,1-2.2,16.569H608.623a8.284,8.284,0,1,1,0-16.569Z" transform="translate(-164.126 5.105)" fill="#0071bc"/>
    <path id="Path_4139" data-name="Path 4139" d="M136.933,87.475a10.128,10.128,0,0,1-13.919,3.372L4.855,18.774A10.127,10.127,0,1,1,15.4,1.483L133.561,73.555a10.127,10.127,0,0,1,3.372,13.919Z" transform="translate(483.636 493.092) rotate(22)" fill="#3f3d56"/>
    <path id="Path_4140" data-name="Path 4140" d="M150.2,123.218A81.018,81.018,0,1,1,123.218,11.863,81.017,81.017,0,0,1,150.2,123.218ZM29.155,49.388a60.763,60.763,0,1,0,83.516-20.233A60.763,60.763,0,0,0,29.155,49.388Z" transform="translate(402.173 343.896) rotate(22)" fill="#3f3d56"/>
    <circle id="Ellipse_605" data-name="Ellipse 605" cx="37.029" cy="37.029" r="37.029" transform="translate(693.567 465.767)" fill="#a0616a"/>
    <path id="Path_4141" data-name="Path 4141" d="M794.282,591.886a16.587,16.587,0,0,1,12.547-21.335,15.774,15.774,0,0,1,2.2-.271l39-62.6-35.629-33.871a14.22,14.22,0,1,1,19.781-20.433l49.192,48.506.1.121a12.882,12.882,0,0,1-.9,15.355L825.93,581.993a15.561,15.561,0,0,1,.407,1.577,16.588,16.588,0,0,1-14.888,19.774q-.706.062-1.405.062A16.639,16.639,0,0,1,794.282,591.886Z" transform="translate(-66.079 118.495)" fill="#a0616a"/>
    <path id="Path_4142" data-name="Path 4142" d="M453.335,633.006l-18.483,0-8.792-71.292,27.279,0Z" transform="translate(216.275 385.137)" fill="#a0616a"/>
    <path id="Path_4143" data-name="Path 4143" d="M778.344,767.987l-59.6,0v-.754a23.2,23.2,0,0,1,23.2-23.2h36.4Z" transform="translate(-104.02 268.073)" fill="#2f2e41"/>
    <path id="Path_4144" data-name="Path 4144" d="M586.179,612.675,570.3,622.131l-44.03-56.756,23.439-13.956Z" transform="translate(267.143 379.913)" fill="#a0616a"/>
    <path id="Path_4145" data-name="Path 4145" d="M904.245,746.628l-51.208,30.489-.386-.648a23.2,23.2,0,0,1,8.063-31.8h0l31.276-18.622Z" transform="translate(-37.707 258.943)" fill="#2f2e41"/>
    <path id="Path_4146" data-name="Path 4146" d="M738.684,840.655C726.3,694.859,718.936,559.416,764.2,504.164l.35-.428,76.173,30.47.125.272c.257.559,25.59,56.284,19.681,93.765l18.789,86.428,61.263,102.58a6.786,6.786,0,0,1-3.092,9.691l-26.623,11.714a6.816,6.816,0,0,1-8.516-2.662L835.708,727.325l-37.642-83.351a2.262,2.262,0,0,0-4.31.692L772.89,840.8a6.772,6.772,0,0,1-6.746,6.068h-20.7a6.83,6.83,0,0,1-6.763-6.215Z" transform="translate(-98.682 146.092)" fill="#2f2e41"/>
    <path id="Path_4147" data-name="Path 4147" d="M753.077,538.14l-.363-.174-.057-.4c-2.845-19.916.523-42.044,10.01-65.77a52.219,52.219,0,0,1,60.609-31.273h0A52.155,52.155,0,0,1,856.536,466.1a51.592,51.592,0,0,1,3.577,41.346c-11.961,34.977-27.478,67.7-27.633,68.03l-.325.683Z" transform="translate(-87.303 113.271)" fill="#0071bc"/>
    <path id="Path_4148" data-name="Path 4148" d="M699.6,482.965a16.587,16.587,0,0,1,24.378,4.28A15.8,15.8,0,0,1,725,489.211l72.3,14.612,19.25-45.234a14.22,14.22,0,1,1,26.066,11.373l-28.208,63.064-.078.135a12.882,12.882,0,0,1-14.7,4.538l-79.682-28.555a15.533,15.533,0,0,1-1.335.933,16.588,16.588,0,0,1-23.736-7.02q-.305-.64-.55-1.295a16.639,16.639,0,0,1,5.27-18.8Z" transform="translate(-116.937 118.841)" fill="#a0616a"/>
    <path id="Path_4149" data-name="Path 4149" d="M944.488,463.418c-3.567-6.32-8.763-12.108-15.633-14.444-8.872-3.017-18.479.2-27.6,2.34-7.028,1.652-14.37,2.664-21.454,1.269s-13.916-5.517-17.139-11.977c-4.742-9.5-.747-20.836-1.036-31.453a38.195,38.195,0,0,0-48.128-35.9c-8.734-2.521-16.643-2.754-22.045,3.961a25.63,25.63,0,0,0-25.63,25.629H790.33a24.348,24.348,0,0,0,3.7,17.988c4.326,6.356,11.849,10.954,13.3,18.5,1.4,7.317-3.57,14.26-8.788,19.579s-11.27,10.589-12.9,17.86a22.145,22.145,0,0,0,3.171,15.928,51.864,51.864,0,0,0,11.136,12.266,163.429,163.429,0,0,0,67.9,34.736c17.645,4.248,36.946,5.349,53.326-2.466a52.956,52.956,0,0,0,23.315-73.823Z" transform="translate(-80.123 79.031)" fill="#2f2e41"/>
    <path id="Path_4150" data-name="Path 4150" d="M984.957,761.978H698.509a1.508,1.508,0,0,1,0-3.015H984.957a1.508,1.508,0,1,1,0,3.015Z" transform="translate(-115.059 275.651)" fill="#ccc"/>
    <path id="Path_4151" data-name="Path 4151" d="M598.052,429.075a29.282,29.282,0,0,1-29.278,29.293,6.3,6.3,0,0,1-.754-.03,29.281,29.281,0,1,1,30.032-29.263Z" transform="translate(-195.014 -6.676)" fill="#ccc"/>
    <text id="_404" data-name="404" transform="translate(379.705 319.852)" fill="#0071bc" font-size="160" font-family="OpenSans-Bold, Open Sans" font-weight="700" letter-spacing="0.09em"><tspan x="0" y="0">404</tspan></text>
  </g>
</svg>
