<svg id="Group_3789" data-name="Group 3789" xmlns="http://www.w3.org/2000/svg" width="18.477" height="13.907" viewBox="0 0 18.477 13.907">
  <path id="Path_2161" data-name="Path 2161" d="M24.417,32.614H12.062a.922.922,0,1,1,0-1.844H24.417a.922.922,0,1,1,0,1.844Zm0,0" transform="translate(-6.861 -18.949)" fill="#004370"/>
  <path id="Path_2162" data-name="Path 2162" d="M24.417,17.544H12.062a.922.922,0,1,1,0-1.844H24.417a.922.922,0,1,1,0,1.844Zm0,0" transform="translate(-6.861 -9.669)" fill="#004370"/>
  <path id="Path_2163" data-name="Path 2163" d="M24.417,2.484H12.062a.922.922,0,1,1,0-1.844H24.417a.922.922,0,1,1,0,1.844Zm0,0" transform="translate(-6.861 -0.394)" fill="#004370"/>
  <path id="Path_2164" data-name="Path 2164" d="M2.474,1.237A1.237,1.237,0,1,1,1.237,0,1.239,1.239,0,0,1,2.474,1.237Zm0,0" fill="#00aeef"/>
  <path id="Path_2165" data-name="Path 2165" d="M2.474,16.117A1.237,1.237,0,1,1,1.237,14.88a1.236,1.236,0,0,1,1.237,1.237Zm0,0" transform="translate(0 -9.164)" fill="#00aeef"/>
  <path id="Path_2166" data-name="Path 2166" d="M2.474,31A1.237,1.237,0,1,1,1.237,29.76,1.236,1.236,0,0,1,2.474,31Zm0,0" transform="translate(0 -18.327)" fill="#00aeef"/>
</svg>
