<svg xmlns="http://www.w3.org/2000/svg" width="19.851" height="18.587" viewBox="0 0 19.851 18.587">
  <g id="Group_3836" data-name="Group 3836" transform="translate(-27.881 -622.477)">
    <g id="chart-svgrepo-com" transform="translate(27.881 622.477)">
      <path id="Path_4014" data-name="Path 4014" d="M19.851,30.583v1.083H0V13.079H1.083v17.5H19.851ZM3.413,21.554a1.255,1.255,0,0,0,.434-.081l2.006,3.14a1.446,1.446,0,1,0,2.291.431l2.633-1.924a1.162,1.162,0,0,0,1.581-.054L15.05,24.75a1.646,1.646,0,1,0,.346-.422L12.641,22.6a1.17,1.17,0,1,0-2.188.082L7.824,24.607a1.423,1.423,0,0,0-1.516-.286l-2-3.136a1.263,1.263,0,1,0-.893.369Z" transform="translate(0 -13.079)" fill="#004370"/>
    </g>
    <path id="Path_4078" data-name="Path 4078" d="M1.355,0A1.368,1.368,0,0,1,2.711,1.381,1.368,1.368,0,0,1,1.355,2.762,1.368,1.368,0,0,1,0,1.381,1.368,1.368,0,0,1,1.355,0Z" transform="translate(30 628.322)" fill="#00aeef"/>
    <path id="Path_4079" data-name="Path 4079" d="M1.674,0A1.693,1.693,0,0,1,3.348,1.712,1.693,1.693,0,0,1,1.674,3.424,1.693,1.693,0,0,1,0,1.712,1.693,1.693,0,0,1,1.674,0Z" transform="translate(33.199 633.526)" fill="#00aeef"/>
    <path id="Path_4080" data-name="Path 4080" d="M1.355,0A1.368,1.368,0,0,1,2.711,1.381,1.368,1.368,0,0,1,1.355,2.762,1.368,1.368,0,0,1,0,1.381,1.368,1.368,0,0,1,1.355,0Z" transform="translate(38 630.322)" fill="#00aeef"/>
    <path id="Path_4081" data-name="Path 4081" d="M1.941,0A1.9,1.9,0,0,1,3.883,1.846,1.9,1.9,0,0,1,1.941,3.692,1.9,1.9,0,0,1,0,1.846,1.9,1.9,0,0,1,1.941,0Z" transform="translate(42.199 633.084)" fill="#00aeef"/>
  </g>
</svg>
