<svg id="Group_3833" data-name="Group 3833" xmlns="http://www.w3.org/2000/svg" xmlns:xlink="http://www.w3.org/1999/xlink" width="18.51" height="17.414" viewBox="0 0 18.51 17.414">
  <defs>
    <clipPath id="clip-path">
      <rect id="Rectangle_2014" data-name="Rectangle 2014" width="18.51" height="17.414" fill="#004370" stroke="#707070" stroke-width="1"/>
    </clipPath>
  </defs>
  <g id="Group_3482" data-name="Group 3482" clip-path="url(#clip-path)">
    <path id="Path_2167" data-name="Path 2167" d="M15.6,1.154H13.289V.581a.581.581,0,0,0-1.162,0v.581H6.358V.581A.549.549,0,0,0,5.777,0,.549.549,0,0,0,5.2.581v.581H2.889A2.847,2.847,0,0,0,0,4.042v10.4a2.859,2.859,0,0,0,2.889,2.889H15.6a2.859,2.859,0,0,0,2.889-2.889V4.042A2.859,2.859,0,0,0,15.6,1.154ZM1.154,4.042A1.778,1.778,0,0,1,2.889,2.308H5.2v.581a.549.549,0,0,0,.581.581.549.549,0,0,0,.581-.581V2.308h5.777v.581a.581.581,0,0,0,1.162,0V2.308h2.308A1.778,1.778,0,0,1,17.34,4.042V5.777H1.154Zm16.178,10.4A1.778,1.778,0,0,1,15.6,16.178H2.889a1.778,1.778,0,0,1-1.735-1.735V6.931H17.332v7.512Zm0,0" fill="#004370"/>
  </g>
  <path id="Path_2168" data-name="Path 2168" d="M35.862,148.508a1.026,1.026,0,0,0,.805-.349,1.253,1.253,0,0,0,.349-.805,1.22,1.22,0,0,0-.349-.805,1.114,1.114,0,0,0-1.619,0,1.05,1.05,0,0,0-.349.805,1.22,1.22,0,0,0,.349.805,1.067,1.067,0,0,0,.813.349Zm0,0" transform="translate(-31.82 -134.065)" fill="#00aeef"/>
  <path id="Path_2169" data-name="Path 2169" d="M35.862,106.708a1.026,1.026,0,0,0,.805-.349,1.253,1.253,0,0,0,.349-.805,1.22,1.22,0,0,0-.349-.805,1.114,1.114,0,0,0-1.619,0,1.05,1.05,0,0,0-.349.805,1.026,1.026,0,0,0,.349.805,1.039,1.039,0,0,0,.813.349Zm0,0" transform="translate(-31.82 -95.734)" fill="#00aeef"/>
  <path id="Path_2170" data-name="Path 2170" d="M77.662,148.508a1.026,1.026,0,0,0,.805-.349,1.253,1.253,0,0,0,.349-.805,1.22,1.22,0,0,0-.349-.805,1.114,1.114,0,0,0-1.619,0,1.253,1.253,0,0,0-.349.805,1.22,1.22,0,0,0,.349.805,1.055,1.055,0,0,0,.813.349Zm0,0" transform="translate(-70.15 -134.065)" fill="#00aeef"/>
  <path id="Path_2171" data-name="Path 2171" d="M77.662,106.708a1.026,1.026,0,0,0,.805-.349,1.253,1.253,0,0,0,.349-.805,1.22,1.22,0,0,0-.349-.805,1.114,1.114,0,0,0-1.619,0,1.253,1.253,0,0,0-.349.805,1.22,1.22,0,0,0,.349.805,1.028,1.028,0,0,0,.813.349Zm0,0" transform="translate(-70.15 -95.734)" fill="#00aeef"/>
  <path id="Path_2172" data-name="Path 2172" d="M119.362,148.508a1.026,1.026,0,0,0,.805-.349,1.05,1.05,0,0,0,.349-.805,1.025,1.025,0,0,0-.349-.805,1.114,1.114,0,0,0-1.619,0,1.253,1.253,0,0,0-.349.805,1.22,1.22,0,0,0,.349.805,1.08,1.08,0,0,0,.813.349Zm0,0" transform="translate(-108.389 -134.065)" fill="#00aeef"/>
  <path id="Path_2173" data-name="Path 2173" d="M119.362,106.708a1.026,1.026,0,0,0,.805-.349,1.05,1.05,0,0,0,.349-.805,1.22,1.22,0,0,0-.349-.805,1.114,1.114,0,0,0-1.619,0,1.253,1.253,0,0,0-.349.805,1.22,1.22,0,0,0,.349.805,1.051,1.051,0,0,0,.813.349Zm0,0" transform="translate(-108.389 -95.734)" fill="#00aeef"/>
  <path id="Path_2174" data-name="Path 2174" d="M161.162,148.508a1.026,1.026,0,0,0,.805-.349,1.253,1.253,0,0,0,.349-.805,1.22,1.22,0,0,0-.349-.805,1.114,1.114,0,0,0-1.619,0,1.05,1.05,0,0,0-.349.805,1.22,1.22,0,0,0,.349.805,1.067,1.067,0,0,0,.813.349Zm0,0" transform="translate(-146.719 -134.065)" fill="#00aeef"/>
  <path id="Path_2175" data-name="Path 2175" d="M161.162,106.708a1.026,1.026,0,0,0,.805-.349,1.05,1.05,0,0,0,.349-.805,1.22,1.22,0,0,0-.349-.805,1.114,1.114,0,0,0-1.619,0,1.253,1.253,0,0,0-.349.805,1.22,1.22,0,0,0,.349.805,1.039,1.039,0,0,0,.813.349Zm0,0" transform="translate(-146.719 -95.734)" fill="#00aeef"/>
</svg>
